HIERARCHY
ROOT Hips
{
	OFFSET 0.000000 0.000000 0.000000
	CHANNELS 6 Xposition Yposition Zposition Xrotation Yrotation Zrotation
	JOINT LeftUpLeg_virtual
	{
		OFFSET 0.000000 0.000000 0.000000
		CHANNELS 3 Xrotation Yrotation Zrotation
		JOINT LeftUpLeg
		{
			OFFSET 10.205400 -3.823500 0.155100
			CHANNELS 3 Xrotation Yrotation Zrotation
			JOINT LeftLeg
			{
				OFFSET 0.708757 -12.982077 0.567790
				CHANNELS 3 Xrotation Yrotation Zrotation
				JOINT LeftFoot
				{
					OFFSET -0.708756 -10.717838 -2.184338
					CHANNELS 3 Xrotation Yrotation Zrotation
					JOINT LeftToeBase
					{
						OFFSET 0.108149 -7.191104 7.560241
						CHANNELS 3 Xrotation Yrotation Zrotation
						JOINT LeftToe_End
						{
							OFFSET 0.070230 0.081724 4.490308
							CHANNELS 3 Xrotation Yrotation Zrotation
							End Site
							{
								OFFSET 0 0 0
							}
						}
					}
				}
			}
		}
	}
	JOINT RightUpLeg_virtual
	{
		OFFSET 0.000000 0.000000 0.000000
		CHANNELS 3 Xrotation Yrotation Zrotation
		JOINT RightUpLeg
		{
			OFFSET -10.205400 -3.823500 0.005500
			CHANNELS 3 Xrotation Yrotation Zrotation
			JOINT RightLeg
			{
				OFFSET -0.708756 -12.982134 0.610632
				CHANNELS 3 Xrotation Yrotation Zrotation
				JOINT RightFoot
				{
					OFFSET 0.708754 -10.717769 -1.945823
					CHANNELS 3 Xrotation Yrotation Zrotation
					JOINT RightToeBase
					{
						OFFSET -0.108140 -7.191069 7.372968
						CHANNELS 3 Xrotation Yrotation Zrotation
						JOINT RightToe_End
						{
							OFFSET -0.070227 0.081735 4.479403
							CHANNELS 3 Xrotation Yrotation Zrotation
							End Site
							{
								OFFSET 0 0 0
							}
						}
					}
				}
			}
		}
	}
	JOINT Spine_virtual
	{
		OFFSET 0.000000 0.000000 0.000000
		CHANNELS 3 Xrotation Yrotation Zrotation
		JOINT Spine
		{
			OFFSET 0.000000 6.876099 0.125700
			CHANNELS 3 Xrotation Yrotation Zrotation
			JOINT Spine1
			{
				OFFSET 0.000000 5.730043 0.104720
				CHANNELS 3 Xrotation Yrotation Zrotation
				JOINT Spine1_split
				{
					OFFSET 0.000000 5.730043 0.104720
					CHANNELS 3 Xrotation Yrotation Zrotation
					JOINT Spine2
					{
						OFFSET 0.000000 5.730043 0.104720
						CHANNELS 3 Xrotation Yrotation Zrotation
						JOINT Neck_virtual
						{
							OFFSET 0.000000 0.000000 0.000000
							CHANNELS 3 Xrotation Yrotation Zrotation
							JOINT Neck
							{
								OFFSET 0.000000 10.314075 0.188496
								CHANNELS 3 Xrotation Yrotation Zrotation
								JOINT Head
								{
									OFFSET 0.000000 7.643700 -2.377400
									CHANNELS 3 Xrotation Yrotation Zrotation
									JOINT HeadTop_End
									{
										OFFSET 0.000000 43.788605 -13.619600
										CHANNELS 3 Xrotation Yrotation Zrotation
										End Site
										{
											OFFSET 0 0 0
										}
									}
								}
							}
						}
						JOINT LeftShoulder_virtual
						{
							OFFSET 0.000000 0.000000 0.000000
							CHANNELS 3 Xrotation Yrotation Zrotation
							JOINT LeftShoulder
							{
								OFFSET 2.196100 4.412489 0.087492
								CHANNELS 3 Xrotation Yrotation Zrotation
								JOINT LeftShoulder_split
								{
									OFFSET 2.196100 4.412489 0.087492
									CHANNELS 3 Xrotation Yrotation Zrotation
									JOINT LeftArm
									{
										OFFSET 8.771219 -2.981674 -0.026999
										CHANNELS 3 Xrotation Yrotation Zrotation
										JOINT LeftForeArm
										{
											OFFSET 8.512804 0.000000 -0.000000
											CHANNELS 3 Xrotation Yrotation Zrotation
											JOINT LeftHand
											{
												OFFSET 18.484802 0.000000 -0.000000
												CHANNELS 3 Xrotation Yrotation Zrotation
												End Site
												{
													OFFSET 0 0 0
												}
											}
										}
									}
								}
							}
						}
						JOINT RightShoulder_virtual
						{
							OFFSET 0.000000 0.000000 0.000000
							CHANNELS 3 Xrotation Yrotation Zrotation
							JOINT RightShoulder
							{
								OFFSET -2.196100 4.412496 0.070690
								CHANNELS 3 Xrotation Yrotation Zrotation
								JOINT RightShoulder_split
								{
									OFFSET -2.196100 4.412496 0.070690
									CHANNELS 3 Xrotation Yrotation Zrotation
									JOINT RightArm
									{
										OFFSET -8.771282 -2.981682 -0.094208
										CHANNELS 3 Xrotation Yrotation Zrotation
										JOINT RightForeArm
										{
											OFFSET -8.494598 0.000000 0.000000
											CHANNELS 3 Xrotation Yrotation Zrotation
											JOINT RightHand
											{
												OFFSET -18.483803 0.000000 0.000001
												CHANNELS 3 Xrotation Yrotation Zrotation
												End Site
												{
													OFFSET 0 0 0
												}
											}
										}
									}
								}
							}
						}
					}
				}
			}
		}
	}
}
MOTION
Frames: 5
Frame Time: 0.03333333
-8.220451 27.861685 -8.238960 0.000000 0.000000 0.000000 36.075990 11.900928 -2.878025 -60.874730 -14.371206 26.286321 34.794609 -13.566037 2.003887 4.363793 17.449521 -42.589347 9.052094 -5.982612 1.909852 0.000000 0.000000 0.000000 37.275532 11.055890 -3.037295 -58.015777 -4.634323 -21.250254 46.099508 11.619330 -6.548690 -20.955353 -20.611593 30.918822 8.020391 14.661648 -6.701348 0.000000 0.000000 0.000000 38.064958 15.501917 -6.141220 14.136944 1.152982 2.415681 4.914474 1.180408 1.420412 0.141397 -0.303184 0.066250 0.000000 0.000000 0.000000 5.094589 3.954753 1.499238 -2.740125 -1.566204 -0.083287 -9.890735 -56.171944 -7.022342 0.000000 0.000000 0.000000 3.462300 2.427319 -0.084124 1.177559 -22.336829 -4.450574 3.450696 2.955241 -6.209756 19.704831 -14.185236 -49.494491 -4.504548 -69.140099 -1.400914 0.000000 0.000000 0.000000 6.070852 3.294518 1.704758 0.674375 23.391675 9.233475 0.516754 1.019046 4.088188 13.801594 39.430481 11.331405 -20.719536 30.421034 10.593061 0.000000 0.000000 0.000000 
-7.851779 27.358088 -8.248610 0.000000 0.000000 0.000000 38.315725 12.584541 -2.766921 -64.774365 -14.514360 24.862112 37.536951 -14.218769 2.360184 3.681671 16.345382 -42.428828 8.651737 -5.917085 2.263046 0.000000 0.000000 0.000000 39.545918 11.049358 -2.645661 -61.796895 -3.586788 -22.630486 48.467494 12.446638 -7.309198 -20.819311 -20.493638 32.409784 7.678778 15.295145 -7.417474 0.000000 0.000000 0.000000 40.484461 15.697411 -5.868161 14.577611 1.714335 2.776241 5.103053 1.381049 1.441957 0.102817 -0.265020 0.065306 0.000000 0.000000 0.000000 5.361835 4.106317 1.472457 -4.111533 -1.598359 -0.163776 -12.819895 -56.256621 -9.677123 0.000000 0.000000 0.000000 3.691726 2.608531 -0.054673 1.265265 -23.369508 -4.032286 3.512451 2.955428 -6.391313 19.601707 -14.675951 -49.128676 -6.972801 -70.402359 -3.677050 0.000000 0.000000 0.000000 6.238405 3.441538 1.713795 1.371594 24.178205 8.068211 0.106257 1.193752 3.803585 10.700148 39.068890 9.611872 -21.840865 31.086786 10.841424 0.000000 0.000000 0.000000 
-7.445092 26.850119 -8.189690 0.000000 0.000000 0.000000 40.523058 13.557322 -2.543801 -68.516244 -14.382541 23.226736 39.998404 -14.802772 2.641795 2.695064 15.270975 -41.870180 8.218514 -5.868397 2.611512 0.000000 0.000000 0.000000 41.603932 11.344500 -2.125204 -65.244965 -2.555380 -24.414996 51.291825 13.328758 -8.139578 -21.145378 -20.542868 34.020038 7.542936 16.062341 -8.295436 0.000000 0.000000 0.000000 42.890053 16.275152 -5.504328 14.949913 2.196853 3.057531 5.332914 1.647360 1.424373 0.082549 -0.253798 0.055665 0.000000 0.000000 0.000000 5.657443 4.331926 1.425644 -5.323882 -1.681014 0.033752 -16.202266 -56.681807 -12.553040 0.000000 0.000000 0.000000 3.943612 2.849586 -0.041420 1.332161 -24.362230 -3.564223 3.795274 2.607175 -6.473464 20.347275 -16.155414 -49.042035 -9.328514 -71.386876 -5.910994 0.000000 0.000000 0.000000 6.447711 3.659620 1.695761 2.055207 24.787327 7.032411 -0.450723 1.302018 3.747136 6.524416 38.426740 8.630979 -22.737988 31.648242 10.885127 0.000000 0.000000 0.000000 
-7.018309 26.292759 -8.072588 0.000000 0.000000 0.000000 42.563649 14.763369 -2.222761 -72.119189 -14.197606 21.486272 42.449230 -15.444555 2.839603 1.574448 14.271533 -41.197471 7.691525 -5.819158 2.815579 0.000000 0.000000 0.000000 43.438989 12.074125 -1.571801 -68.247913 -1.439342 -26.503507 54.600242 14.130451 -9.027222 -22.282437 -20.979580 35.327009 7.988797 16.862844 -9.155660 0.000000 0.000000 0.000000 45.146003 17.218075 -5.082586 15.299123 2.577086 3.258691 5.655357 1.968204 1.370775 0.072688 -0.262970 0.051088 0.000000 0.000000 0.000000 6.005942 4.612626 1.366961 -6.386862 -1.812841 0.523722 -19.991079 -57.443120 -15.615778 0.000000 0.000000 0.000000 4.249567 3.134835 -0.049282 1.391991 -25.175126 -2.988083 4.196744 2.192825 -6.412938 21.617496 -18.158306 -49.138843 -11.302835 -72.144064 -7.802875 0.000000 0.000000 0.000000 6.731923 3.923633 1.647833 2.682624 25.271710 6.189760 -1.022314 1.276295 3.965738 2.046560 37.550263 7.748602 -23.555388 32.520293 10.980513 0.000000 0.000000 0.000000 
-6.599844 25.652210 -7.927189 0.000000 0.000000 0.000000 44.317850 16.180052 -1.828402 -75.621006 -14.139962 19.725899 45.213288 -16.116697 2.947983 0.254914 13.490770 -40.446676 7.121235 -5.760305 2.813519 0.000000 0.000000 0.000000 45.080679 13.295406 -1.087339 -70.710339 -0.097495 -28.741276 58.452294 14.778125 -9.982839 -24.128417 -21.880012 36.258879 8.456148 17.657043 -9.718599 0.000000 0.000000 0.000000 47.198916 18.409462 -4.638070 15.672863 2.836201 3.406668 6.112319 2.318912 1.294768 0.076149 -0.285386 0.058899 0.000000 0.000000 0.000000 6.430836 4.913394 1.293633 -7.407270 -1.973014 1.269270 -24.180869 -58.345457 -18.829107 0.000000 0.000000 0.000000 4.639750 3.424559 -0.067549 1.479948 -25.696679 -2.187328 4.545550 1.877963 -6.251579 22.960902 -20.122606 -49.308693 -12.916479 -72.739261 -9.311008 0.000000 0.000000 0.000000 7.132587 4.192429 1.583469 3.228988 25.707770 5.547162 -1.553807 1.115700 4.428815 -1.879644 36.630086 6.169962 -24.450115 33.871202 11.403401 0.000000 0.000000 0.000000 
